<?xml version="1.0" encoding="UTF-8" standalone="no"?>
<!-- Created with Inkscape (http://www.inkscape.org/) -->
<svg
   xmlns:dc="http://purl.org/dc/elements/1.1/"
   xmlns:cc="http://creativecommons.org/ns#"
   xmlns:rdf="http://www.w3.org/1999/02/22-rdf-syntax-ns#"
   xmlns:svg="http://www.w3.org/2000/svg"
   xmlns="http://www.w3.org/2000/svg"
   xmlns:xlink="http://www.w3.org/1999/xlink"
   xmlns:sodipodi="http://sodipodi.sourceforge.net/DTD/sodipodi-0.dtd"
   xmlns:inkscape="http://www.inkscape.org/namespaces/inkscape"
   id="svg2"
   sodipodi:version="0.32"
   inkscape:version="0.46"
   width="1280"
   height="800"
   version="1.0"
   sodipodi:docname="background.svg"
   inkscape:output_extension="org.inkscape.output.svg.inkscape">
  <sodipodi:namedview
     inkscape:window-height="989"
     inkscape:window-width="1680"
     inkscape:pageshadow="2"
     inkscape:pageopacity="0.0"
     guidetolerance="10.0"
     gridtolerance="10.0"
     objecttolerance="10.0"
     borderopacity="1.0"
     bordercolor="#666666"
     pagecolor="#ffffff"
     id="base"
     showgrid="false"
     showguides="true"
     inkscape:guide-bbox="true"
     inkscape:zoom="0.60561345"
     inkscape:cx="815.12883"
     inkscape:cy="356.09494"
     inkscape:window-x="-5"
     inkscape:window-y="-3"
     inkscape:current-layer="svg2">
    <inkscape:grid
       visible="true"
       enabled="true"
       id="grid9036"
       type="xygrid" />
  </sodipodi:namedview>
  <metadata
     id="metadata7">
    <rdf:RDF>
      <cc:Work
         rdf:about="">
        <dc:format>image/svg+xml</dc:format>
        <dc:type
           rdf:resource="http://purl.org/dc/dcmitype/StillImage" />
      </cc:Work>
    </rdf:RDF>
  </metadata>
  <defs
     id="defs5">
    <inkscape:perspective
       sodipodi:type="inkscape:persp3d"
       inkscape:vp_x="-50 : 600 : 1"
       inkscape:vp_y="0 : 1000 : 0"
       inkscape:vp_z="700 : 600 : 1"
       inkscape:persp3d-origin="300 : 400 : 1"
       id="perspective101" />
    <linearGradient
       id="linearGradient9066">
      <stop
         id="stop9068"
         offset="0"
         style="stop-color:#b6edfd;stop-opacity:1;" />
      <stop
         id="stop9070"
         offset="1"
         style="stop-color:#748b92;stop-opacity:1;" />
    </linearGradient>
    <radialGradient
       r="640"
       fy="-503.56891"
       fx="641.10065"
       cy="-503.56891"
       cx="641.10065"
       gradientTransform="matrix(1.0684864,0,0,0.8678154,-43.890141,837.711)"
       gradientUnits="userSpaceOnUse"
       id="radialGradient5597"
       xlink:href="#linearGradient3240"
       inkscape:collect="always" />
    <mask
       id="mask5593"
       maskUnits="userSpaceOnUse">
      <rect
         inkscape:export-ydpi="90"
         inkscape:export-xdpi="90"
         inkscape:export-filename="/home/pinheiro/photos/000000/winners/blac.png"
         style="opacity:1;fill:url(#radialGradient5597);fill-opacity:1;fill-rule:nonzero;stroke:none;stroke-width:2;stroke-linecap:round;stroke-linejoin:round;stroke-miterlimit:4;stroke-dasharray:none;stroke-dashoffset:0;stroke-opacity:1"
         id="rect5595"
         width="1280"
         height="800"
         x="1.1172047"
         y="0.70607889" />
    </mask>
    <linearGradient
       id="linearGradient5494"
       inkscape:collect="always">
      <stop
         id="stop5496"
         offset="0"
         style="stop-color:#1f1f1f;stop-opacity:1;" />
      <stop
         id="stop5498"
         offset="1"
         style="stop-color:#1f1f1f;stop-opacity:0;" />
    </linearGradient>
    <linearGradient
       inkscape:collect="always"
       id="linearGradient3361">
      <stop
         style="stop-color:#ffffff;stop-opacity:1;"
         offset="0"
         id="stop3363" />
      <stop
         style="stop-color:#ffffff;stop-opacity:0;"
         offset="1"
         id="stop3365" />
    </linearGradient>
    <linearGradient
       inkscape:collect="always"
       id="linearGradient3300">
      <stop
         style="stop-color:#ffffff;stop-opacity:1;"
         offset="0"
         id="stop3302" />
      <stop
         style="stop-color:#ffffff;stop-opacity:0;"
         offset="1"
         id="stop3304" />
    </linearGradient>
    <linearGradient
       inkscape:collect="always"
       id="linearGradient3240">
      <stop
         style="stop-color:#ffffff;stop-opacity:1;"
         offset="0"
         id="stop3242" />
      <stop
         style="stop-color:#ffffff;stop-opacity:0;"
         offset="1"
         id="stop3244" />
    </linearGradient>
    <linearGradient
       inkscape:collect="always"
       id="linearGradient3227">
      <stop
         style="stop-color:#ffffff;stop-opacity:1;"
         offset="0"
         id="stop3229" />
      <stop
         style="stop-color:#ffffff;stop-opacity:0;"
         offset="1"
         id="stop3231" />
    </linearGradient>
    <linearGradient
       id="linearGradient3159">
      <stop
         style="stop-color:#000000;stop-opacity:1;"
         offset="0"
         id="stop3161" />
      <stop
         style="stop-color:#aaaaaa;stop-opacity:1;"
         offset="1"
         id="stop3163" />
    </linearGradient>
    <linearGradient
       y2="950.41473"
       x2="774.4657"
       y1="740.40045"
       x1="774.4657"
       gradientTransform="translate(-0.979273,-0.9947999)"
       gradientUnits="userSpaceOnUse"
       id="linearGradient5660"
       xlink:href="#linearGradient3159"
       inkscape:collect="always" />
    <linearGradient
       y2="713.83942"
       x2="654.49023"
       y1="495.84497"
       x1="654.49023"
       gradientTransform="translate(-41,0)"
       gradientUnits="userSpaceOnUse"
       id="linearGradient5662"
       xlink:href="#linearGradient5494"
       inkscape:collect="always" />
    <radialGradient
       r="410.77905"
       fy="312.29956"
       fx="498.20294"
       cy="312.29956"
       cx="498.20294"
       gradientTransform="matrix(0.5015153,-0.156916,0.1664808,0.5320852,92.537643,311.16164)"
       gradientUnits="userSpaceOnUse"
       id="radialGradient5664"
       xlink:href="#linearGradient3227"
       inkscape:collect="always" />
    <radialGradient
       r="411.77905"
       fy="647.44019"
       fx="294.0603"
       cy="647.44019"
       cx="294.0603"
       gradientTransform="matrix(1,0,0,0.9912909,0.1006673,5.6385941)"
       gradientUnits="userSpaceOnUse"
       id="radialGradient5666"
       xlink:href="#linearGradient3240"
       inkscape:collect="always" />
    <linearGradient
       y2="339.8811"
       x2="325.3364"
       y1="301.1246"
       x1="325.3364"
       gradientTransform="translate(0.1006673,0)"
       gradientUnits="userSpaceOnUse"
       id="linearGradient5668"
       xlink:href="#linearGradient3240"
       inkscape:collect="always" />
    <radialGradient
       r="6.6199732"
       fy="247.923"
       fx="864.93866"
       cy="247.923"
       cx="864.93866"
       gradientTransform="matrix(2.2171964,-8.7461512e-6,5.171064e-6,1.3108925,-1052.8015,-77.069858)"
       gradientUnits="userSpaceOnUse"
       id="radialGradient5670"
       xlink:href="#linearGradient3300"
       inkscape:collect="always" />
    <linearGradient
       y2="343.60672"
       x2="325.3364"
       y1="314.15103"
       x1="325.3364"
       gradientTransform="matrix(0.6487722,0,0,0.6487722,658.64518,25.91787)"
       gradientUnits="userSpaceOnUse"
       id="linearGradient5672"
       xlink:href="#linearGradient3240"
       inkscape:collect="always" />
    <radialGradient
       r="381.45328"
       fy="339.92731"
       fx="998.43866"
       cy="339.92731"
       cx="998.43866"
       gradientTransform="matrix(1,0,0,0.9160553,0,19.589099)"
       gradientUnits="userSpaceOnUse"
       id="radialGradient5674"
       xlink:href="#linearGradient3361"
       inkscape:collect="always" />
    <radialGradient
       r="6.6199732"
       fy="247.923"
       fx="864.93866"
       cy="247.923"
       cx="864.93866"
       gradientTransform="matrix(2.2171964,-8.7461512e-6,5.171064e-6,1.3108925,-1052.8015,-77.069858)"
       gradientUnits="userSpaceOnUse"
       id="radialGradient5676"
       xlink:href="#linearGradient3300"
       inkscape:collect="always" />
    <linearGradient
       y2="343.60672"
       x2="325.3364"
       y1="314.15103"
       x1="325.3364"
       gradientTransform="matrix(0.5010405,0,0,0.5010405,684.75257,89.401488)"
       gradientUnits="userSpaceOnUse"
       id="linearGradient5678"
       xlink:href="#linearGradient3240"
       inkscape:collect="always" />
    <radialGradient
       r="6.6199732"
       fy="247.923"
       fx="864.93866"
       cy="247.923"
       cx="864.93866"
       gradientTransform="matrix(2.2171964,-8.7461512e-6,5.171064e-6,1.3108925,-1052.8015,-77.069858)"
       gradientUnits="userSpaceOnUse"
       id="radialGradient5680"
       xlink:href="#linearGradient3300"
       inkscape:collect="always" />
    <linearGradient
       y2="343.60672"
       x2="325.3364"
       y1="314.15103"
       x1="325.3364"
       gradientTransform="matrix(0.4391934,0,0,0.4391934,726.96153,97.56414)"
       gradientUnits="userSpaceOnUse"
       id="linearGradient5682"
       xlink:href="#linearGradient3240"
       inkscape:collect="always" />
    <radialGradient
       r="6.6199732"
       fy="247.923"
       fx="864.93866"
       cy="247.923"
       cx="864.93866"
       gradientTransform="matrix(2.2171964,-8.7461512e-6,5.171064e-6,1.3108925,-1052.8015,-77.069858)"
       gradientUnits="userSpaceOnUse"
       id="radialGradient5684"
       xlink:href="#linearGradient3300"
       inkscape:collect="always" />
    <linearGradient
       y2="343.60672"
       x2="325.3364"
       y1="314.15103"
       x1="325.3364"
       gradientTransform="matrix(0.6487722,0,0,0.6487722,650.64518,30.91787)"
       gradientUnits="userSpaceOnUse"
       id="linearGradient5686"
       xlink:href="#linearGradient3240"
       inkscape:collect="always" />
    <radialGradient
       r="6.6199732"
       fy="247.923"
       fx="864.93866"
       cy="247.923"
       cx="864.93866"
       gradientTransform="matrix(2.2171964,0,0,1.4748698,-1052.8002,-117.73117)"
       gradientUnits="userSpaceOnUse"
       id="radialGradient5688"
       xlink:href="#linearGradient3300"
       inkscape:collect="always" />
    <linearGradient
       y2="343.60672"
       x2="325.3364"
       y1="314.15103"
       x1="325.3364"
       gradientTransform="matrix(0.6487722,0,0,0.6487722,650.64518,30.91787)"
       gradientUnits="userSpaceOnUse"
       id="linearGradient5690"
       xlink:href="#linearGradient3240"
       inkscape:collect="always" />
    <radialGradient
       gradientUnits="userSpaceOnUse"
       gradientTransform="matrix(1.1781174,-2.8734396e-2,1.2424648e-2,0.5094137,-87.029377,554.02471)"
       r="34.801285"
       fy="-493.42346"
       fx="545.09064"
       cy="-493.42346"
       cx="545.09064"
       id="radialGradient9072"
       xlink:href="#linearGradient9066"
       inkscape:collect="always" />
    <linearGradient
       gradientUnits="userSpaceOnUse"
       y2="512.04498"
       x2="1256.6138"
       y1="512.04498"
       x1="1124.0671"
       gradientTransform="scale(0.9990401,1.0009608)"
       id="linearGradient6666">
      <stop
         id="stop6668"
         offset="0"
         style="stop-color:#a03700;stop-opacity:1;" />
      <stop
         id="stop6670"
         offset="1"
         style="stop-color:#8d0000;stop-opacity:1;" />
    </linearGradient>
    <radialGradient
       inkscape:collect="always"
       xlink:href="#linearGradient4391"
       id="radialGradient3617"
       gradientUnits="userSpaceOnUse"
       gradientTransform="matrix(1.3364993,-0.2573789,0.2883199,1.3880947,-482.56528,120.75736)"
       cx="1143.5531"
       cy="494.27905"
       fx="1130.7726"
       fy="468.10941"
       r="46.861942" />
    <linearGradient
       id="linearGradient4391">
      <stop
         id="stop4393"
         offset="0"
         style="stop-color:#ffff00;stop-opacity:1;" />
      <stop
         style="stop-color:#f9f500;stop-opacity:1;"
         offset="0.34460136"
         id="stop3486" />
      <stop
         style="stop-color:#f4eb00;stop-opacity:1;"
         offset="0.46399081"
         id="stop3484" />
      <stop
         style="stop-color:#ead700;stop-opacity:1;"
         offset="0.69395709"
         id="stop3482" />
      <stop
         id="stop4397"
         offset="1"
         style="stop-color:#d6af00;stop-opacity:1;" />
    </linearGradient>
    <linearGradient
       inkscape:collect="always"
       id="linearGradient3619">
      <stop
         style="stop-color:#9b0c0c;stop-opacity:1;"
         offset="0"
         id="stop3621" />
      <stop
         style="stop-color:#9b0c0c;stop-opacity:0;"
         offset="1"
         id="stop3623" />
    </linearGradient>
    <linearGradient
       y2="421.24744"
       x2="1188.6729"
       y1="564.87622"
       x1="1211.8433"
       gradientUnits="userSpaceOnUse"
       id="linearGradient10950"
       xlink:href="#linearGradient3619"
       inkscape:collect="always" />
    <linearGradient
       y2="512.04498"
       x2="1256.6138"
       y1="512.04498"
       x1="1124.0671"
       gradientTransform="scale(0.9990401,1.0009608)"
       gradientUnits="userSpaceOnUse"
       id="linearGradient10952"
       xlink:href="#linearGradient6666"
       inkscape:collect="always" />
    <linearGradient
       inkscape:collect="always"
       xlink:href="#linearGradient3159"
       id="linearGradient2474"
       gradientUnits="userSpaceOnUse"
       gradientTransform="translate(-0.979273,-0.9947999)"
       x1="774.4657"
       y1="740.40045"
       x2="774.4657"
       y2="950.41473" />
    <radialGradient
       inkscape:collect="always"
       xlink:href="#linearGradient3361"
       id="radialGradient3263"
       gradientUnits="userSpaceOnUse"
       gradientTransform="matrix(-0.5810059,0.2406672,-0.187254,-0.5357546,741.6798,32.54828)"
       cx="998.43866"
       cy="339.92731"
       fx="998.43866"
       fy="339.92731"
       r="381.45328" />
    <linearGradient
       inkscape:collect="always"
       xlink:href="#linearGradient3240"
       id="linearGradient3269"
       gradientUnits="userSpaceOnUse"
       gradientTransform="matrix(10.105727,0,0,18.663046,-2658.8417,-5691.2511)"
       x1="325.3364"
       y1="301.1246"
       x2="325.3364"
       y2="339.8811" />
    <radialGradient
       inkscape:collect="always"
       xlink:href="#linearGradient3240"
       id="radialGradient3272"
       gradientUnits="userSpaceOnUse"
       gradientTransform="matrix(0.6591668,0,0,0.7502926,66.752225,223.17792)"
       cx="294.0603"
       cy="647.44019"
       fx="294.0603"
       fy="647.44019"
       r="411.77905" />
    <radialGradient
       inkscape:collect="always"
       xlink:href="#linearGradient3227"
       id="radialGradient3275"
       gradientUnits="userSpaceOnUse"
       gradientTransform="matrix(0.5015153,-0.156916,0.1664808,0.5320852,835.36693,514.09031)"
       cx="498.20294"
       cy="312.29956"
       fx="498.20294"
       fy="312.29956"
       r="410.77905" />
    <linearGradient
       inkscape:collect="always"
       xlink:href="#linearGradient5494"
       id="linearGradient3278"
       gradientUnits="userSpaceOnUse"
       gradientTransform="matrix(0.5651427,0,0,0.565,-20.259085,1.6998328)"
       x1="654.49023"
       y1="495.84497"
       x2="654.49023"
       y2="713.83942" />
    <radialGradient
       inkscape:collect="always"
       xlink:href="#linearGradient3240"
       id="radialGradient3284"
       gradientUnits="userSpaceOnUse"
       gradientTransform="matrix(0.4726508,0.4207102,0.446033,-0.5776,-198.28868,386.22192)"
       cx="294.0603"
       cy="647.44019"
       fx="294.0603"
       fy="647.44019"
       r="411.77905" />
  </defs>
  <rect
     y="0.0051878104"
     x="-1.3934689"
     height="808"
     width="1288"
     id="rect5505"
     style="fill:#1a1a1a;fill-opacity:1;fill-rule:nonzero;stroke:none;stroke-width:2;stroke-linecap:round;stroke-linejoin:round;stroke-miterlimit:4;stroke-dasharray:none;stroke-dashoffset:0;stroke-opacity:1"
     inkscape:export-filename="/home/pinheiro/photos/000000/winners/blac.png"
     inkscape:export-xdpi="90"
     inkscape:export-ydpi="90" />
  <path
     style="opacity:0.52328766;fill:url(#radialGradient3275);fill-opacity:1;fill-rule:evenodd;stroke:none;stroke-width:1px;stroke-linecap:butt;stroke-linejoin:miter;stroke-opacity:1"
     d="M 1113.68,443.17867 C 1087.4436,443.34773 1061.5554,451.52743 1039.3362,470.24117 C 1024.2806,482.9215 1012.411,502.06141 1008.1487,522.05367 C 1003.8864,542.04595 1007.2668,562.93151 1022.805,578.89742 C 1029.0525,585.31697 1038.3791,590.427 1047.8675,591.95992 C 1057.3558,593.49284 1067.0706,591.40156 1073.8362,583.36617 C 1076.0339,580.756 1077.8166,576.85211 1078.18,572.99117 L 1078.0237,572.99117 C 1077.6832,576.60869 1075.5112,580.52517 1073.4612,582.95992 C 1066.9429,590.70157 1057.2672,592.45328 1048.0237,590.95992 C 1038.7802,589.46656 1029.6087,584.46241 1023.5237,578.20992 C 1008.2384,562.50381 1007.3133,541.77092 1011.5237,522.02242 C 1015.7341,502.27392 1026.9307,485.45625 1041.805,472.92867 C 1073.8577,445.93275 1109.95,446.13992 1147.3675,455.61617 C 1184.7849,465.09241 1213.3436,489.32708 1236.18,519.61617 C 1280.3071,578.14445 1283.4166,637.31723 1264.8987,702.30367 C 1246.3808,767.29013 1205.6952,817.18731 1150.305,855.42867 C 1086.7374,899.31567 1018.3763,913.03669 950.83621,905.42867 C 992.72479,896.59187 1030.7445,873.35575 1054.0862,834.33492 C 1066.6265,813.37106 1073.0528,787.85326 1072.0862,763.14742 C 1072.055,762.35044 1072.0078,761.56756 1071.9612,760.77242 C 1071.7483,757.1375 1071.3762,753.50489 1070.8362,749.92867 C 1066.5162,721.31903 1051.6011,695.13401 1023.9925,680.14742 C 1009.6798,672.37818 991.73701,669.34611 975.42996,672.30367 C 959.12291,675.26122 944.44414,684.23925 936.71121,700.52242 C 933.10887,708.10787 931.86147,717.63213 933.74246,726.14742 C 935.62345,734.66269 940.63653,740.47833 949.49246,743.92867 C 953.05321,745.31598 957.569,745.6366 961.52371,744.55367 C 965.47842,743.47073 967.69326,740.96348 968.89871,736.64742 C 969.29028,735.24542 969.28422,733.39809 968.74246,731.83492 L 968.67996,731.86617 C 969.18756,733.33082 969.04522,735.24589 968.67996,736.55367 C 967.51855,740.71195 965.28262,743.09242 961.42996,744.14742 C 957.5773,745.20247 953.11681,744.87362 949.64871,743.52242 C 940.93686,740.12819 936.91301,733.96513 935.05496,725.55367 C 933.19692,717.14224 934.58974,708.61025 938.14871,701.11617 C 945.81797,684.96704 959.8527,678.67973 976.05496,675.74117 C 992.25722,672.80261 1007.6451,677.14595 1021.8675,684.86617 C 1049.3497,699.78412 1061.0009,722.20568 1065.305,750.70992 C 1069.609,779.21417 1062.6393,805.78645 1047.8987,830.42867 C 1006.4626,899.69829 921.87793,903.85862 849.08621,878.36617 C 772.76766,846.68441 701.51635,791.91449 644.36746,728.05367 L 626.21121,777.42867 C 744.09802,909.16086 943.1281,973.92476 1106.2112,900.05367 C 1119.8272,898.04172 1134.9015,895.80741 1150.4925,893.77242 C 1217.3978,886.41357 1280.8228,897.46195 1337.3675,934.45992 C 1393.9121,971.45788 1430.2468,1018.2353 1435.2112,1091.3662 C 1437.7803,1129.2122 1432.1026,1166.2056 1410.0237,1197.8662 C 1387.9448,1229.5267 1360.8012,1253.349 1318.8987,1253.9287 C 1299.4536,1254.1977 1279.9483,1248.8183 1263.8362,1236.6475 C 1238.5405,1218.177 1227.1815,1187.1047 1246.305,1160.6162 C 1252.3142,1153.4355 1260.7782,1148.4383 1270.7737,1150.0224 C 1273.9174,1150.5206 1278.1479,1152.0422 1280.7737,1154.5537 L 1280.8675,1154.4599 C 1278.065,1151.7794 1274.1438,1149.994 1270.7737,1149.4599 C 1260.3989,1147.8156 1251.7234,1152.6204 1245.555,1159.9912 C 1224.585,1187.6935 1237.4448,1217.7244 1261.2737,1238.8349 C 1277.5847,1251.156 1299.1228,1257.826 1318.805,1257.5537 C 1361.0552,1256.9692 1394.5209,1234.4503 1416.7425,1202.585 C 1438.9642,1170.7196 1449.9842,1129.4839 1447.3987,1091.3974 C 1442.4115,1017.9301 1401.1524,960.5947 1344.3987,923.45992 C 1337.3045,918.81807 1329.9686,914.46213 1322.43,910.45992 C 1320.7809,909.58446 1319.1292,908.74182 1317.4612,907.89742 C 1266.092,881.89151 1205.9604,870.62407 1149.3675,876.61617 C 1152.8483,874.39191 1156.3094,872.11136 1159.7425,869.74117 C 1206.8646,837.2081 1245.3275,789.03803 1267.2737,735.39742 C 1267.9816,733.66706 1268.6629,731.95135 1269.3362,730.20992 C 1272.4142,722.2491 1275.1379,714.17577 1277.4612,706.02242 C 1296.0476,640.79573 1289.6664,570.41374 1245.3362,511.61617 C 1222.3549,481.1348 1187.0269,457.21621 1149.3675,447.67867 C 1137.5989,444.69819 1125.6055,443.10182 1113.68,443.17867 z"
     id="path5622" />
  <path
     style="opacity:0.52328766;fill:url(#radialGradient3284);fill-opacity:1;fill-rule:nonzero;stroke:none;stroke-width:0.40000001;stroke-linecap:round;stroke-linejoin:round;stroke-miterlimit:4;stroke-dasharray:none;stroke-dashoffset:0;stroke-opacity:1"
     d="M 82.510412,405.49814 C 70.185866,394.36175 61.630204,378.70417 59.548604,358.45233 C 58.138111,344.7298 61.139969,328.5838 68.120924,315.14161 C 75.101866,301.69941 86.097135,290.95211 100.62515,288.18625 C 106.46653,287.07413 113.17403,288.02045 118.34845,291.11911 C 123.52288,294.21776 127.17362,299.52342 126.75584,307.05178 C 126.62011,309.49725 125.70615,312.52195 124.14066,314.9245 L 124.06681,314.85876 C 125.53358,312.60767 126.26922,309.41185 126.39579,307.13073 C 126.7983,299.87756 123.01325,294.78622 117.97236,291.76752 C 112.93144,288.7488 106.34491,287.80605 100.65552,288.88922 C 86.363902,291.61007 76.597896,303.30142 69.702039,316.57972 C 62.806222,329.85802 60.531187,344.36779 61.924704,357.92503 C 64.927585,387.13978 82.079869,402.20346 104.02911,412.4238 C 125.97835,422.64413 150.38108,420.53815 174.80332,412.49695 C 221.99496,396.95876 250.08956,363.78849 270.57781,318.13187 C 291.06608,272.47525 294.28731,226.28459 285.31383,180.69908 C 275.01559,128.38371 248.87845,91.6286 213.53235,67.64683 C 229.35487,90.41875 236.8698,119.95313 230.3448,152.50966 C 226.83925,170.0006 218.39485,187.57276 206.82156,201.56159 C 206.44821,202.01284 206.07365,202.44914 205.69386,202.89285 C 203.95766,204.92123 202.14731,206.88134 200.28296,208.73793 C 185.36816,223.59057 166.53652,232.57298 146.74403,229.69005 C 136.48335,228.1955 126.63839,222.4135 120.26162,213.82966 C 113.88482,205.24583 110.98656,193.83905 114.65824,181.09794 C 116.36867,175.16255 120.06454,169.08821 124.78506,164.91792 C 129.50558,160.74764 134.49177,159.46807 140.23003,161.18342 C 142.53725,161.87311 144.8159,163.58614 146.19782,165.88092 C 147.57976,168.17572 147.49845,170.56842 146.12619,173.59043 C 145.68044,174.57208 144.84635,175.64592 143.88694,176.32882 L 143.87147,176.28431 C 144.77042,175.64445 145.56482,174.4687 145.98061,173.55302 C 147.3027,170.64148 147.31699,168.31376 145.97071,166.07819 C 144.62447,163.84259 142.36825,162.15763 140.12108,161.48587 C 134.47616,159.79843 129.80122,161.69663 125.13825,165.81607 C 120.47531,169.93549 117.29465,175.49284 115.60483,181.35675 C 111.96338,193.99297 115.76793,203.56098 122.10372,212.08966 C 128.43953,220.61834 137.66691,224.56141 147.86286,226.04654 C 167.5647,228.91628 183.16029,220.75359 198.02013,205.95566 C 212.87999,191.15773 221.542,172.74251 225.66265,152.18259 C 237.24581,94.388359 199.13874,56.3786 153.2633,40.60819 C 102.936,26.96035 44.615212,28.89724 -11.130552,42.06419 L 2.5042462,5.6561096 C 117.49667,-21.50469 240.70903,24.49302 284.55199,136.14655 C 288.1802,143.87856 294.37269,152.07685 301.33726,159.9223 C 329.89245,192.08907 365.91613,211.11753 409.28932,213.34869 C 452.66252,215.57985 490.88371,203.6102 526.13548,163.08728 C 544.37869,142.1162 558.34028,118.17244 562.15042,90.43583 C 565.96057,62.69921 563.84996,37.39903 544.30549,19.43248 C 535.23578,11.095 523.5961,6.0233696 510.50449,6.3363896 C 490.23761,6.4565396 470.88776,19.78269 468.00794,43.26227 C 467.61722,49.97446 469.36924,56.44709 474.80642,59.72928 C 476.51645,60.76155 479.20069,61.65477 481.5718,61.29609 L 481.5739,61.39018 C 479.04323,61.77298 476.38659,61.1636 474.55335,60.057 C 468.90986,56.65027 466.97125,50.20082 467.37222,43.31095 C 469.92546,18.34719 489.5162,6.2591696 510.27753,3.9837796 C 523.53083,3.6668396 536.71198,8.8417096 545.89224,17.28085 C 565.59892,35.39645 571.28404,62.59702 567.44929,90.51294 C 563.61451,118.42898 550.26907,147.09223 531.90998,168.19647 C 496.49598,208.90584 451.19674,224.95561 407.66319,222.71622 C 402.22148,222.43631 396.79422,221.88812 391.43026,221.04851 C 390.2569,220.86483 389.09709,220.66094 387.92878,220.45122 C 351.94767,213.99264 318.45662,195.25992 294.40406,167.95925 C 295.04851,170.71971 295.65823,173.50463 296.2144,176.33001 C 303.84841,215.11096 300.35372,259.36016 286.59095,299.84818 C 286.14697,301.15424 285.69699,302.44055 285.23167,303.73852 C 283.1045,309.67203 280.75925,315.52203 278.18875,321.25023 C 257.62474,367.07562 222.94019,405.4008 175.53142,421.01047 C 150.95414,429.10276 123.49415,428.17666 101.40292,417.8902 C 94.499431,414.67568 88.112474,410.56013 82.510412,405.49814 z"
     id="path5624"
     sodipodi:nodetypes="csssssccssssssssscsssssssssssccsssssssssccccsssssccsccsccsssssscssssssc" />
  <g
     transform="matrix(1.0548602,0,0,1.0548602,-33.28293,770.75801)"
     id="g5728"
     style="stroke:none" />
  <g
     transform="translate(1262.021,117.71421)"
     style="display:inline"
     inkscape:label="box"
     id="layer4" />
  <g
     transform="translate(1262.021,117.71421)"
     style="display:inline"
     inkscape:label="zip_app"
     id="layer5" />
  <rect
     y="56.181572"
     x="1175.5515"
     height="0"
     width="1"
     id="rect1327"
     style="opacity:0.57786889;fill:#ffffff;fill-opacity:1;fill-rule:nonzero;stroke:none;stroke-width:3.63199997;stroke-linecap:round;stroke-linejoin:round;stroke-miterlimit:4;stroke-dasharray:none;stroke-dashoffset:4;stroke-opacity:1" />
  <rect
     y="28.653923"
     x="1140.4248"
     height="0"
     width="1"
     id="rect2482"
     style="opacity:0.57786889;fill:#ffffff;fill-opacity:1;fill-rule:nonzero;stroke:none;stroke-width:3.63199997;stroke-linecap:round;stroke-linejoin:round;stroke-miterlimit:4;stroke-dasharray:none;stroke-dashoffset:4;stroke-opacity:1" />
  <g
     id="g4640"
     transform="matrix(-0.782995,0,0,0.650879,-1341.371,641.95551)"
     style="opacity:0.40163933" />
  <g
     style="opacity:0.40163933"
     transform="matrix(-0.782995,0,0,0.650879,-1341.371,641.95551)"
     id="g4646" />
  <g
     style="opacity:0.40163933"
     transform="matrix(1,0,0,0.650879,1859.5918,649.28331)"
     id="g4730" />
  <g
     id="g4748"
     transform="matrix(1,0,0,0.650879,1859.5918,649.28331)"
     style="opacity:0.40163933" />
  <g
     id="g3"
     style="fill:#f9f9f9"
     transform="translate(665.83735,-309.90583)">
	<g
   id="g5"
   style="fill:#f9f9f9">
		<path
   d="M 470.199,372.829 C 470.199,374.741 469.529,376.366 468.188,377.706 C 466.843,379.052 465.22,379.722 463.307,379.722 L 461.886,379.722 C 460.943,379.722 460.467,380.181 460.467,381.101 L 460.467,386.628 C 460.467,387.399 460.198,388.048 459.667,388.587 C 459.135,389.12 458.485,389.386 457.712,389.386 L 456.333,389.386 C 455.558,389.386 454.907,389.12 454.376,388.581 C 453.839,388.046 453.575,387.39 453.575,386.61 L 453.575,354.72 C 453.575,352.81 454.251,351.181 455.604,349.843 C 456.958,348.503 458.598,347.827 460.524,347.827 L 463.306,347.827 C 465.219,347.827 466.842,348.503 468.187,349.843 C 469.528,351.181 470.198,352.81 470.198,354.72 L 470.198,372.829 L 470.199,372.829 z M 463.27,371.38 L 463.27,356.146 C 463.27,355.222 462.803,354.761 461.87,354.761 C 460.937,354.761 460.469,355.222 460.469,356.146 L 460.469,371.38 C 460.469,372.304 460.937,372.767 461.87,372.767 C 462.803,372.767 463.27,372.304 463.27,371.38 z"
   id="path7"
   style="fill:#f9f9f9" />

		<path
   d="M 490.697,382.493 C 490.697,384.405 490.027,386.034 488.683,387.372 C 487.343,388.712 485.716,389.386 483.803,389.386 L 480.966,389.386 C 479.055,389.386 477.428,388.712 476.087,387.372 C 474.743,386.034 474.071,384.405 474.071,382.493 L 474.071,379.722 C 474.071,377.814 474.743,376.183 476.087,374.843 C 477.428,373.503 479.055,372.829 480.966,372.829 L 482.369,372.829 C 483.302,372.829 483.768,372.364 483.768,371.436 L 483.768,356.114 C 483.768,355.184 483.307,354.719 482.383,354.719 C 481.459,354.719 481,355.181 481,356.11 L 481,367.219 C 481,367.994 480.731,368.653 480.197,369.19 C 479.658,369.727 479.004,369.999 478.227,369.999 L 476.845,369.999 C 476.069,369.999 475.413,369.728 474.872,369.192 C 474.342,368.655 474.071,368.001 474.071,367.225 L 474.071,354.752 C 474.071,352.832 474.743,351.197 476.087,349.852 C 477.428,348.502 479.055,347.827 480.966,347.827 L 483.803,347.827 C 485.716,347.827 487.343,348.505 488.683,349.854 C 490.027,351.2 490.697,352.838 490.697,354.76 L 490.697,382.493 z M 483.77,381.077 C 483.77,380.155 483.309,379.69 482.385,379.69 C 481.461,379.69 481,380.155 481,381.077 C 481,381.999 481.461,382.46 482.385,382.46 C 483.309,382.46 483.77,381.999 483.77,381.077 z"
   id="path9"
   style="fill:#f9f9f9" />

		<path
   d="M 511.195,367.226 C 511.195,368.001 510.927,368.656 510.396,369.193 C 509.863,369.728 509.212,370 508.437,370 L 507.058,370 C 506.287,370 505.633,369.729 505.099,369.191 C 504.568,368.654 504.305,367.996 504.305,367.22 L 504.305,356.11 C 504.305,355.18 503.828,354.719 502.884,354.719 C 501.938,354.719 501.464,355.18 501.464,356.106 L 501.464,386.61 C 501.464,387.389 501.196,388.046 500.663,388.581 C 500.132,389.12 499.479,389.386 498.71,389.386 L 497.327,389.386 C 496.556,389.386 495.903,389.12 495.374,388.581 C 494.838,388.048 494.57,387.39 494.57,386.614 L 494.57,354.753 C 494.57,352.833 495.247,351.198 496.591,349.853 C 497.943,348.503 499.575,347.828 501.499,347.828 L 504.269,347.828 C 506.189,347.828 507.824,348.504 509.172,349.853 C 510.519,351.199 511.194,352.833 511.194,354.753 L 511.194,367.226 L 511.195,367.226 z"
   id="path11"
   style="fill:#f9f9f9" />

		<path
   d="M 531.693,382.493 C 531.693,384.405 531.022,386.034 529.682,387.372 C 528.341,388.712 526.712,389.386 524.804,389.386 L 517.85,389.386 C 517.072,389.386 516.413,389.12 515.874,388.581 C 515.337,388.048 515.069,387.39 515.069,386.614 L 515.069,350.596 C 515.069,349.821 515.337,349.164 515.874,348.629 C 516.413,348.094 517.071,347.826 517.85,347.826 L 524.804,347.826 C 526.712,347.826 528.341,348.502 529.682,349.842 C 531.022,351.18 531.693,352.809 531.693,354.719 L 531.693,382.493 z M 524.766,381.077 L 524.766,356.145 C 524.766,355.221 524.3,354.76 523.364,354.76 C 522.428,354.76 521.962,355.221 521.962,356.145 L 521.962,381.077 C 521.962,381.999 522.429,382.46 523.364,382.46 C 524.3,382.46 524.766,381.999 524.766,381.077 z"
   id="path13"
   style="fill:#f9f9f9" />

		<path
   d="M 552.195,382.493 C 552.195,384.405 551.521,386.034 550.177,387.372 C 548.836,388.712 547.21,389.386 545.298,389.386 L 542.461,389.386 C 540.547,389.386 538.921,388.712 537.581,387.372 C 536.24,386.034 535.566,384.405 535.566,382.493 L 535.566,350.6 C 535.566,349.821 535.835,349.164 536.369,348.631 C 536.907,348.094 537.561,347.826 538.337,347.826 L 539.724,347.826 C 540.499,347.826 541.152,348.094 541.689,348.629 C 542.228,349.164 542.494,349.82 542.494,350.596 L 542.494,381.076 C 542.494,381.998 542.957,382.459 543.881,382.459 C 544.803,382.459 545.264,381.998 545.264,381.076 L 545.264,350.596 C 545.264,349.821 545.532,349.164 546.071,348.629 C 546.604,348.094 547.259,347.826 548.037,347.826 L 549.421,347.826 C 550.196,347.826 550.855,348.094 551.388,348.631 C 551.928,349.164 552.197,349.82 552.197,350.6 L 552.197,382.493 L 552.195,382.493 z"
   id="path15"
   style="fill:#f9f9f9" />

		<path
   d="M 572.689,382.493 C 572.689,384.405 572.018,386.034 570.677,387.372 C 569.335,388.712 567.706,389.386 565.797,389.386 L 558.847,389.386 C 558.069,389.386 557.409,389.12 556.871,388.581 C 556.335,388.048 556.065,387.39 556.065,386.614 L 556.065,385.231 C 556.065,384.458 556.335,383.799 556.871,383.264 C 557.406,382.725 558.059,382.459 558.839,382.459 L 564.378,382.459 C 565.298,382.459 565.766,382.006 565.766,381.09 C 565.766,380.176 565.292,379.721 564.364,379.721 L 562.961,379.721 C 561.048,379.721 559.423,379.051 558.08,377.705 C 556.736,376.365 556.066,374.74 556.066,372.828 L 556.066,354.72 C 556.066,352.81 556.736,351.181 558.08,349.843 C 559.423,348.503 561.048,347.827 562.961,347.827 L 565.798,347.827 C 567.707,347.827 569.336,348.503 570.678,349.843 C 572.019,351.181 572.69,352.81 572.69,354.72 L 572.69,367.22 C 572.69,367.995 572.425,368.654 571.888,369.191 C 571.352,369.728 570.696,370 569.92,370 L 568.533,370 C 567.757,370 567.099,369.729 566.564,369.193 C 566.029,368.656 565.766,368.002 565.766,367.228 L 565.766,356.146 C 565.766,355.222 565.298,354.761 564.378,354.761 C 563.452,354.761 562.993,355.222 562.993,356.146 L 562.993,371.38 C 562.993,372.304 563.462,372.767 564.395,372.767 L 565.796,372.767 C 567.705,372.767 569.334,373.443 570.676,374.796 C 572.017,376.146 572.688,377.786 572.688,379.714 L 572.688,382.493 L 572.689,382.493 z"
   id="path17"
   style="fill:#f9f9f9" />

	</g>

	<g
   id="g19"
   style="fill:#f9f9f9">
		<path
   d="M 459.22,400.087 C 457.912,400.677 457.324,401.493 457.422,402.769 C 458.076,402.931 458.664,403.455 458.664,404.337 L 458.664,404.827 C 458.664,405.677 458.01,406.362 457.16,406.362 C 456.213,406.362 455.592,405.612 455.592,404.565 L 455.592,403.944 C 455.592,401.95 455.985,400.774 456.736,400.022 C 457.423,399.336 458.436,398.813 458.959,398.813 C 459.384,398.813 459.679,399.075 459.679,399.499 C 459.678,399.761 459.48,399.989 459.22,400.087 z M 465.756,400.087 C 464.449,400.677 463.861,401.493 463.959,402.769 C 464.612,402.931 465.201,403.455 465.201,404.337 L 465.201,404.827 C 465.201,405.677 464.547,406.362 463.697,406.362 C 462.75,406.362 462.129,405.612 462.129,404.565 L 462.129,403.944 C 462.129,401.95 462.521,400.774 463.273,400.022 C 463.96,399.336 464.973,398.813 465.496,398.813 C 465.921,398.813 466.215,399.075 466.215,399.499 C 466.214,399.761 466.018,399.989 465.756,400.087 z"
   id="path21"
   style="fill:#f9f9f9" />

		<path
   d="M 470.496,419.403 L 478.307,412.507 C 481.837,409.37 483.079,407.605 483.079,405.318 C 483.079,402.638 480.955,400.937 478.471,400.937 C 476.052,400.937 474.418,402.115 472.783,404.271 C 472.588,404.533 472.261,404.73 471.836,404.73 C 471.182,404.73 470.659,404.207 470.659,403.552 C 470.659,403.29 470.758,403.029 470.92,402.833 C 472.816,400.187 474.908,398.616 478.666,398.616 C 482.785,398.616 485.76,401.362 485.76,405.089 L 485.76,405.153 C 485.76,408.487 483.994,410.546 479.975,414.044 L 473.863,419.47 L 484.942,419.47 C 485.596,419.47 486.152,419.993 486.152,420.646 C 486.152,421.3 485.596,421.824 484.942,421.824 L 471.182,421.824 C 470.43,421.824 469.875,421.334 469.875,420.615 C 469.875,420.124 470.07,419.763 470.496,419.403 z"
   id="path23"
   style="fill:#f9f9f9" />

		<path
   d="M 490.662,410.448 L 490.662,410.384 C 490.662,403.978 494.486,398.552 500.37,398.552 C 506.253,398.552 509.978,403.911 509.978,410.318 L 509.978,410.384 C 509.978,416.79 506.187,422.216 500.304,422.216 C 494.389,422.216 490.662,416.854 490.662,410.448 z M 507.299,410.448 L 507.299,410.384 C 507.299,405.382 504.554,400.905 500.305,400.905 C 496.024,400.905 493.343,405.284 493.343,410.317 L 493.343,410.383 C 493.343,415.383 496.088,419.862 500.37,419.862 C 504.651,419.862 507.299,415.45 507.299,410.448 z"
   id="path25"
   style="fill:#f9f9f9" />

		<path
   d="M 514.653,410.448 L 514.653,410.384 C 514.653,403.978 518.477,398.552 524.361,398.552 C 530.244,398.552 533.969,403.911 533.969,410.318 L 533.969,410.384 C 533.969,416.79 530.177,422.216 524.294,422.216 C 518.379,422.216 514.653,416.854 514.653,410.448 z M 531.289,410.448 L 531.289,410.384 C 531.289,405.382 528.545,400.905 524.295,400.905 C 520.014,400.905 517.334,405.284 517.334,410.317 L 517.334,410.383 C 517.334,415.383 520.079,419.862 524.361,419.862 C 528.643,419.862 531.289,415.45 531.289,410.448 z"
   id="path27"
   style="fill:#f9f9f9" />

		<path
   d="M 538.317,415.679 L 538.317,415.613 C 538.317,412.9 540.278,410.972 543.023,409.992 C 540.899,409.012 539.101,407.377 539.101,404.73 L 539.101,404.664 C 539.101,401.135 542.729,398.617 546.913,398.617 C 551.097,398.617 554.725,401.135 554.725,404.664 L 554.725,404.73 C 554.725,407.376 552.928,409.011 550.803,409.992 C 553.516,411.006 555.51,412.869 555.51,415.58 L 555.51,415.646 C 555.51,419.535 551.783,422.15 546.913,422.15 C 542.043,422.15 538.317,419.503 538.317,415.679 z M 552.895,415.612 L 552.895,415.548 C 552.895,412.997 550.248,411.2 546.914,411.2 C 543.581,411.2 540.933,412.997 540.933,415.548 L 540.933,415.612 C 540.933,417.901 543.156,419.893 546.914,419.893 C 550.672,419.893 552.895,417.933 552.895,415.612 z M 552.143,404.892 L 552.143,404.828 C 552.143,402.572 549.888,400.873 546.914,400.873 C 543.94,400.873 541.685,402.539 541.685,404.828 L 541.685,404.892 C 541.685,407.376 544.005,409.076 546.914,409.076 C 549.823,409.076 552.143,407.376 552.143,404.892 z"
   id="path29"
   style="fill:#f9f9f9" />

		<path
   d="M 559.889,405.056 C 561.23,404.468 561.785,403.65 561.72,402.376 C 561.033,402.212 560.446,401.688 560.446,400.839 L 560.446,400.318 C 560.446,399.466 561.099,398.781 561.949,398.781 C 562.897,398.781 563.551,399.533 563.551,400.578 L 563.551,401.199 C 563.551,403.193 563.126,404.371 562.374,405.121 C 561.688,405.842 560.675,406.332 560.151,406.332 C 559.726,406.332 559.465,406.07 559.465,405.678 C 559.465,405.382 559.628,405.153 559.889,405.056 z M 566.426,405.056 C 567.766,404.468 568.322,403.65 568.256,402.376 C 567.57,402.212 566.982,401.688 566.982,400.839 L 566.982,400.318 C 566.982,399.466 567.635,398.781 568.486,398.781 C 569.434,398.781 570.088,399.533 570.088,400.578 L 570.088,401.199 C 570.088,403.193 569.663,404.371 568.911,405.121 C 568.224,405.842 567.212,406.332 566.688,406.332 C 566.263,406.332 566.001,406.07 566.001,405.678 C 566.001,405.382 566.164,405.153 566.426,405.056 z"
   id="path31"
   style="fill:#f9f9f9" />

	</g>

</g>
</svg>
